<mxfile host="app.diagrams.net" modified="2023-08-11T10:09:46.558Z" agent="Mozilla/5.0 (Windows NT 10.0; Win64; x64) AppleWebKit/537.36 (KHTML, like Gecko) Chrome/115.0.0.0 Safari/537.36" etag="e69tkNGrn5vAGyQ3bhLp" version="21.6.8" type="github">
  <diagram name="Page-1" id="XHnx7GiShQzO20-7YMqX">
    <mxGraphModel dx="2284" dy="750" grid="1" gridSize="10" guides="1" tooltips="1" connect="1" arrows="1" fold="1" page="1" pageScale="1" pageWidth="850" pageHeight="1100" math="0" shadow="0">
      <root>
        <mxCell id="0" />
        <mxCell id="1" parent="0" />
        <mxCell id="_41Iq6OzP9S5sfrPNSl_-76" value="" style="rounded=0;whiteSpace=wrap;html=1;fillColor=#FFFFFF;strokeColor=#36393d;dashed=1;dashPattern=1 2;" vertex="1" parent="1">
          <mxGeometry x="-399" y="50" width="1199" height="1020" as="geometry" />
        </mxCell>
        <mxCell id="_41Iq6OzP9S5sfrPNSl_-64" value="" style="rounded=0;whiteSpace=wrap;html=1;fillColor=#f5f5f5;fontColor=#333333;strokeColor=#666666;" vertex="1" parent="1">
          <mxGeometry x="344" y="240" width="239" height="800" as="geometry" />
        </mxCell>
        <mxCell id="_41Iq6OzP9S5sfrPNSl_-60" value="" style="rounded=0;whiteSpace=wrap;html=1;fillColor=#f5f5f5;fontColor=#333333;strokeColor=#666666;" vertex="1" parent="1">
          <mxGeometry x="86.5" y="240" width="239" height="800" as="geometry" />
        </mxCell>
        <mxCell id="_41Iq6OzP9S5sfrPNSl_-51" value="" style="rounded=0;whiteSpace=wrap;html=1;fillColor=#f5f5f5;fontColor=#333333;strokeColor=#666666;" vertex="1" parent="1">
          <mxGeometry x="-168" y="240" width="239" height="800" as="geometry" />
        </mxCell>
        <mxCell id="_41Iq6OzP9S5sfrPNSl_-57" value="" style="rounded=0;whiteSpace=wrap;html=1;dashed=1;fillColor=#f9f7ed;strokeColor=#36393d;" vertex="1" parent="1">
          <mxGeometry x="-149" y="876" width="710" height="80" as="geometry" />
        </mxCell>
        <mxCell id="_41Iq6OzP9S5sfrPNSl_-49" value="" style="rounded=0;whiteSpace=wrap;html=1;dashed=1;fillColor=#f9f7ed;strokeColor=#36393d;" vertex="1" parent="1">
          <mxGeometry x="-149" y="710" width="710" height="160" as="geometry" />
        </mxCell>
        <mxCell id="_41Iq6OzP9S5sfrPNSl_-47" value="" style="rounded=0;whiteSpace=wrap;html=1;dashed=1;fillColor=#f9f7ed;strokeColor=#36393d;" vertex="1" parent="1">
          <mxGeometry x="-149" y="500" width="710" height="200" as="geometry" />
        </mxCell>
        <mxCell id="_41Iq6OzP9S5sfrPNSl_-43" value="" style="rounded=0;whiteSpace=wrap;html=1;dashed=1;fillColor=#f9f7ed;strokeColor=#36393d;" vertex="1" parent="1">
          <mxGeometry x="-149" y="298" width="710" height="32" as="geometry" />
        </mxCell>
        <mxCell id="_41Iq6OzP9S5sfrPNSl_-45" value="" style="rounded=0;whiteSpace=wrap;html=1;dashed=1;fillColor=#f9f7ed;strokeColor=#36393d;" vertex="1" parent="1">
          <mxGeometry x="-149" y="336" width="710" height="160" as="geometry" />
        </mxCell>
        <mxCell id="_41Iq6OzP9S5sfrPNSl_-3" value="" style="rounded=0;whiteSpace=wrap;html=1;fillColor=#bac8d3;strokeColor=#23445d;" vertex="1" parent="1">
          <mxGeometry x="-129" y="290" width="180" height="680" as="geometry" />
        </mxCell>
        <mxCell id="_41Iq6OzP9S5sfrPNSl_-20" value="" style="rounded=0;whiteSpace=wrap;html=1;fillColor=#bac8d3;strokeColor=#23445d;" vertex="1" parent="1">
          <mxGeometry x="106.5" y="290" width="180" height="680" as="geometry" />
        </mxCell>
        <mxCell id="_41Iq6OzP9S5sfrPNSl_-31" value="" style="rounded=0;whiteSpace=wrap;html=1;fillColor=#bac8d3;strokeColor=#23445d;" vertex="1" parent="1">
          <mxGeometry x="361" y="290" width="180" height="680" as="geometry" />
        </mxCell>
        <mxCell id="PWhxvfO3s3oYaA7X_2O--1" value="" style="image;sketch=0;aspect=fixed;html=1;points=[];align=center;fontSize=12;image=img/lib/mscae/Docker.svg;" parent="1" vertex="1">
          <mxGeometry x="-129" y="250" width="36.59" height="30" as="geometry" />
        </mxCell>
        <mxCell id="PWhxvfO3s3oYaA7X_2O--2" value="" style="image;aspect=fixed;perimeter=ellipsePerimeter;html=1;align=center;shadow=0;dashed=0;spacingTop=3;image=img/lib/active_directory/windows_server.svg;" parent="1" vertex="1">
          <mxGeometry x="-69" y="120" width="41" height="50" as="geometry" />
        </mxCell>
        <mxCell id="PWhxvfO3s3oYaA7X_2O--3" value="" style="image;aspect=fixed;perimeter=ellipsePerimeter;html=1;align=center;shadow=0;dashed=0;spacingTop=3;image=img/lib/active_directory/windows_server.svg;" parent="1" vertex="1">
          <mxGeometry x="176" y="120" width="41" height="50" as="geometry" />
        </mxCell>
        <mxCell id="PWhxvfO3s3oYaA7X_2O--4" value="" style="image;aspect=fixed;perimeter=ellipsePerimeter;html=1;align=center;shadow=0;dashed=0;spacingTop=3;image=img/lib/active_directory/windows_server.svg;" parent="1" vertex="1">
          <mxGeometry x="430.5" y="120" width="41" height="50" as="geometry" />
        </mxCell>
        <mxCell id="PWhxvfO3s3oYaA7X_2O--5" value="master/192.168.1.11" style="text;html=1;strokeColor=none;fillColor=none;align=center;verticalAlign=middle;whiteSpace=wrap;rounded=0;fontStyle=1;fontSize=14;" parent="1" vertex="1">
          <mxGeometry x="-123.5" y="180" width="169.5" height="30" as="geometry" />
        </mxCell>
        <mxCell id="_41Iq6OzP9S5sfrPNSl_-1" value="node1/192.168.1.12" style="text;html=1;strokeColor=none;fillColor=none;align=center;verticalAlign=middle;whiteSpace=wrap;rounded=0;fontStyle=1;fontSize=14;" vertex="1" parent="1">
          <mxGeometry x="166.5" y="180" width="60" height="30" as="geometry" />
        </mxCell>
        <mxCell id="_41Iq6OzP9S5sfrPNSl_-2" value="node2/192.168.1.13" style="text;html=1;strokeColor=none;fillColor=none;align=center;verticalAlign=middle;whiteSpace=wrap;rounded=0;fontStyle=1;fontSize=14;" vertex="1" parent="1">
          <mxGeometry x="421" y="180" width="60" height="30" as="geometry" />
        </mxCell>
        <mxCell id="_41Iq6OzP9S5sfrPNSl_-4" value="ffmpeg.alg.peinde" style="rounded=1;whiteSpace=wrap;html=1;fillColor=#dae8fc;gradientColor=#7ea6e0;strokeColor=#6c8ebf;" vertex="1" parent="1">
          <mxGeometry x="-119" y="300" width="160" height="30" as="geometry" />
        </mxCell>
        <mxCell id="_41Iq6OzP9S5sfrPNSl_-5" value="person.alg.peinde" style="rounded=1;whiteSpace=wrap;html=1;fillColor=#dae8fc;gradientColor=#7ea6e0;strokeColor=#6c8ebf;" vertex="1" parent="1">
          <mxGeometry x="-119" y="340" width="160" height="30" as="geometry" />
        </mxCell>
        <mxCell id="_41Iq6OzP9S5sfrPNSl_-6" value="peinde.service.vai-9111" style="rounded=1;whiteSpace=wrap;html=1;fillColor=#dae8fc;gradientColor=#7ea6e0;strokeColor=#6c8ebf;" vertex="1" parent="1">
          <mxGeometry x="-119" y="380" width="160" height="30" as="geometry" />
        </mxCell>
        <mxCell id="_41Iq6OzP9S5sfrPNSl_-7" value="peinde.service.vai-9114" style="rounded=1;whiteSpace=wrap;html=1;fillColor=#dae8fc;gradientColor=#7ea6e0;strokeColor=#6c8ebf;" vertex="1" parent="1">
          <mxGeometry x="-119" y="420" width="160" height="30" as="geometry" />
        </mxCell>
        <mxCell id="_41Iq6OzP9S5sfrPNSl_-9" value="voice-notice.service.vai" style="rounded=1;whiteSpace=wrap;html=1;fillColor=#d5e8d4;gradientColor=#97d077;strokeColor=#82b366;" vertex="1" parent="1">
          <mxGeometry x="-119" y="500" width="160" height="30" as="geometry" />
        </mxCell>
        <mxCell id="_41Iq6OzP9S5sfrPNSl_-10" value="base.service.vai" style="rounded=1;whiteSpace=wrap;html=1;fillColor=#d5e8d4;gradientColor=#97d077;strokeColor=#82b366;" vertex="1" parent="1">
          <mxGeometry x="-119" y="540" width="160" height="30" as="geometry" />
        </mxCell>
        <mxCell id="_41Iq6OzP9S5sfrPNSl_-11" value="city3d.service.vai" style="rounded=1;whiteSpace=wrap;html=1;fillColor=#d5e8d4;gradientColor=#97d077;strokeColor=#82b366;" vertex="1" parent="1">
          <mxGeometry x="-119" y="580" width="160" height="30" as="geometry" />
        </mxCell>
        <mxCell id="_41Iq6OzP9S5sfrPNSl_-12" value="main.service.vai" style="rounded=1;whiteSpace=wrap;html=1;fillColor=#d5e8d4;gradientColor=#97d077;strokeColor=#82b366;" vertex="1" parent="1">
          <mxGeometry x="-119" y="620" width="160" height="30" as="geometry" />
        </mxCell>
        <mxCell id="_41Iq6OzP9S5sfrPNSl_-13" value="gateway.service.vai" style="rounded=1;whiteSpace=wrap;html=1;fillColor=#d5e8d4;gradientColor=#97d077;strokeColor=#82b366;" vertex="1" parent="1">
          <mxGeometry x="-119" y="660" width="160" height="30" as="geometry" />
        </mxCell>
        <mxCell id="_41Iq6OzP9S5sfrPNSl_-14" value="nginx" style="rounded=1;whiteSpace=wrap;html=1;fillColor=#f8cecc;gradientColor=#ea6b66;strokeColor=#b85450;" vertex="1" parent="1">
          <mxGeometry x="-119" y="710" width="160" height="30" as="geometry" />
        </mxCell>
        <mxCell id="_41Iq6OzP9S5sfrPNSl_-15" value="minio1" style="rounded=1;whiteSpace=wrap;html=1;fillColor=#f8cecc;gradientColor=#ea6b66;strokeColor=#b85450;" vertex="1" parent="1">
          <mxGeometry x="-119" y="750" width="160" height="30" as="geometry" />
        </mxCell>
        <mxCell id="_41Iq6OzP9S5sfrPNSl_-16" value="redis" style="rounded=1;whiteSpace=wrap;html=1;fillColor=#f8cecc;gradientColor=#ea6b66;strokeColor=#b85450;" vertex="1" parent="1">
          <mxGeometry x="-119" y="790" width="160" height="30" as="geometry" />
        </mxCell>
        <mxCell id="_41Iq6OzP9S5sfrPNSl_-17" value="xjob" style="rounded=1;whiteSpace=wrap;html=1;fillColor=#f8cecc;gradientColor=#ea6b66;strokeColor=#b85450;" vertex="1" parent="1">
          <mxGeometry x="-119" y="830" width="160" height="30" as="geometry" />
        </mxCell>
        <mxCell id="_41Iq6OzP9S5sfrPNSl_-18" value="portainer" style="rounded=1;whiteSpace=wrap;html=1;fillColor=#fff2cc;gradientColor=#ffd966;strokeColor=#d6b656;" vertex="1" parent="1">
          <mxGeometry x="-119" y="880" width="160" height="30" as="geometry" />
        </mxCell>
        <mxCell id="_41Iq6OzP9S5sfrPNSl_-21" value="ffmpeg.alg.peinde" style="rounded=1;whiteSpace=wrap;html=1;fillColor=#dae8fc;gradientColor=#7ea6e0;strokeColor=#6c8ebf;" vertex="1" parent="1">
          <mxGeometry x="116" y="300" width="160" height="30" as="geometry" />
        </mxCell>
        <mxCell id="_41Iq6OzP9S5sfrPNSl_-22" value="person.alg.peinde" style="rounded=1;whiteSpace=wrap;html=1;fillColor=#dae8fc;gradientColor=#7ea6e0;strokeColor=#6c8ebf;" vertex="1" parent="1">
          <mxGeometry x="116" y="340" width="160" height="30" as="geometry" />
        </mxCell>
        <mxCell id="_41Iq6OzP9S5sfrPNSl_-23" value="peinde.service.vai-9111" style="rounded=1;whiteSpace=wrap;html=1;fillColor=#dae8fc;gradientColor=#7ea6e0;strokeColor=#6c8ebf;" vertex="1" parent="1">
          <mxGeometry x="116.5" y="380" width="160" height="30" as="geometry" />
        </mxCell>
        <mxCell id="_41Iq6OzP9S5sfrPNSl_-24" value="peinde.service.vai-9114" style="rounded=1;whiteSpace=wrap;html=1;fillColor=#dae8fc;gradientColor=#7ea6e0;strokeColor=#6c8ebf;" vertex="1" parent="1">
          <mxGeometry x="116.5" y="420" width="160" height="30" as="geometry" />
        </mxCell>
        <mxCell id="_41Iq6OzP9S5sfrPNSl_-25" value="peinde.service.vai-9115" style="rounded=1;whiteSpace=wrap;html=1;fillColor=#dae8fc;gradientColor=#7ea6e0;strokeColor=#6c8ebf;" vertex="1" parent="1">
          <mxGeometry x="116.5" y="460" width="160" height="30" as="geometry" />
        </mxCell>
        <mxCell id="_41Iq6OzP9S5sfrPNSl_-26" value="minio2" style="rounded=1;whiteSpace=wrap;html=1;fillColor=#f8cecc;gradientColor=#ea6b66;strokeColor=#b85450;" vertex="1" parent="1">
          <mxGeometry x="116" y="750" width="160" height="30" as="geometry" />
        </mxCell>
        <mxCell id="_41Iq6OzP9S5sfrPNSl_-27" style="edgeStyle=orthogonalEdgeStyle;rounded=0;orthogonalLoop=1;jettySize=auto;html=1;exitX=0.5;exitY=1;exitDx=0;exitDy=0;" edge="1" parent="1" source="_41Iq6OzP9S5sfrPNSl_-26" target="_41Iq6OzP9S5sfrPNSl_-26">
          <mxGeometry relative="1" as="geometry" />
        </mxCell>
        <mxCell id="_41Iq6OzP9S5sfrPNSl_-28" value="mosquitto" style="rounded=1;whiteSpace=wrap;html=1;fillColor=#f8cecc;gradientColor=#ea6b66;strokeColor=#b85450;" vertex="1" parent="1">
          <mxGeometry x="116" y="710" width="160" height="30" as="geometry" />
        </mxCell>
        <mxCell id="_41Iq6OzP9S5sfrPNSl_-29" value="zookeeper" style="rounded=1;whiteSpace=wrap;html=1;fillColor=#f8cecc;gradientColor=#ea6b66;strokeColor=#b85450;" vertex="1" parent="1">
          <mxGeometry x="116.5" y="790" width="160" height="30" as="geometry" />
        </mxCell>
        <mxCell id="_41Iq6OzP9S5sfrPNSl_-30" value="kakfa" style="rounded=1;whiteSpace=wrap;html=1;fillColor=#f8cecc;gradientColor=#ea6b66;strokeColor=#b85450;" vertex="1" parent="1">
          <mxGeometry x="116.5" y="830" width="160" height="30" as="geometry" />
        </mxCell>
        <mxCell id="_41Iq6OzP9S5sfrPNSl_-32" value="ffmpeg.alg.peinde" style="rounded=1;whiteSpace=wrap;html=1;fillColor=#dae8fc;gradientColor=#7ea6e0;strokeColor=#6c8ebf;" vertex="1" parent="1">
          <mxGeometry x="371" y="300" width="160" height="30" as="geometry" />
        </mxCell>
        <mxCell id="_41Iq6OzP9S5sfrPNSl_-35" value="person.alg.peinde" style="rounded=1;whiteSpace=wrap;html=1;fillColor=#dae8fc;gradientColor=#7ea6e0;strokeColor=#6c8ebf;" vertex="1" parent="1">
          <mxGeometry x="370.5" y="340" width="160" height="30" as="geometry" />
        </mxCell>
        <mxCell id="_41Iq6OzP9S5sfrPNSl_-36" value="peinde.service.vai-9111" style="rounded=1;whiteSpace=wrap;html=1;fillColor=#dae8fc;gradientColor=#7ea6e0;strokeColor=#6c8ebf;" vertex="1" parent="1">
          <mxGeometry x="371" y="380" width="160" height="30" as="geometry" />
        </mxCell>
        <mxCell id="_41Iq6OzP9S5sfrPNSl_-37" value="peinde.service.vai-9114" style="rounded=1;whiteSpace=wrap;html=1;fillColor=#dae8fc;gradientColor=#7ea6e0;strokeColor=#6c8ebf;" vertex="1" parent="1">
          <mxGeometry x="371" y="420" width="160" height="30" as="geometry" />
        </mxCell>
        <mxCell id="_41Iq6OzP9S5sfrPNSl_-38" value="peinde.service.vai-9115" style="rounded=1;whiteSpace=wrap;html=1;fillColor=#dae8fc;gradientColor=#7ea6e0;strokeColor=#6c8ebf;" vertex="1" parent="1">
          <mxGeometry x="371" y="460" width="160" height="30" as="geometry" />
        </mxCell>
        <mxCell id="_41Iq6OzP9S5sfrPNSl_-39" value="" style="image;sketch=0;aspect=fixed;html=1;points=[];align=center;fontSize=12;image=img/lib/mscae/Docker.svg;" vertex="1" parent="1">
          <mxGeometry x="106.5" y="250" width="36.59" height="30" as="geometry" />
        </mxCell>
        <mxCell id="_41Iq6OzP9S5sfrPNSl_-40" value="" style="image;sketch=0;aspect=fixed;html=1;points=[];align=center;fontSize=12;image=img/lib/mscae/Docker.svg;" vertex="1" parent="1">
          <mxGeometry x="361" y="250" width="36.59" height="30" as="geometry" />
        </mxCell>
        <mxCell id="_41Iq6OzP9S5sfrPNSl_-41" value="minio3" style="rounded=1;whiteSpace=wrap;html=1;fillColor=#f8cecc;gradientColor=#ea6b66;strokeColor=#b85450;" vertex="1" parent="1">
          <mxGeometry x="371" y="750" width="160" height="30" as="geometry" />
        </mxCell>
        <mxCell id="_41Iq6OzP9S5sfrPNSl_-42" value="srs" style="rounded=1;whiteSpace=wrap;html=1;fillColor=#f8cecc;gradientColor=#ea6b66;strokeColor=#b85450;" vertex="1" parent="1">
          <mxGeometry x="371" y="830" width="160" height="30" as="geometry" />
        </mxCell>
        <mxCell id="_41Iq6OzP9S5sfrPNSl_-44" value="抽帧程序(有状态负载)" style="text;html=1;strokeColor=none;fillColor=none;align=center;verticalAlign=middle;whiteSpace=wrap;rounded=0;fontStyle=3;fontColor=#666666;" vertex="1" parent="1">
          <mxGeometry x="-303" y="300" width="140" height="28" as="geometry" />
        </mxCell>
        <mxCell id="_41Iq6OzP9S5sfrPNSl_-46" value="算法调度处理程序（无状态负载均衡）" style="text;html=1;strokeColor=none;fillColor=none;align=center;verticalAlign=middle;whiteSpace=wrap;rounded=0;fontStyle=3;fontColor=#666666;" vertex="1" parent="1">
          <mxGeometry x="-374" y="331" width="210" height="36" as="geometry" />
        </mxCell>
        <mxCell id="_41Iq6OzP9S5sfrPNSl_-48" value="业务程序" style="text;html=1;strokeColor=none;fillColor=none;align=center;verticalAlign=middle;whiteSpace=wrap;rounded=0;fontStyle=3;fontColor=#666666;" vertex="1" parent="1">
          <mxGeometry x="-308.5" y="500" width="210" height="36" as="geometry" />
        </mxCell>
        <mxCell id="_41Iq6OzP9S5sfrPNSl_-50" value="基础环境" style="text;html=1;strokeColor=none;fillColor=none;align=center;verticalAlign=middle;whiteSpace=wrap;rounded=0;fontStyle=3;labelBorderColor=none;fontColor=#666666;" vertex="1" parent="1">
          <mxGeometry x="-304.5" y="714" width="210" height="36" as="geometry" />
        </mxCell>
        <mxCell id="_41Iq6OzP9S5sfrPNSl_-52" value="chrony（时间同步[master]）" style="rounded=1;whiteSpace=wrap;html=1;fillColor=#cdeb8b;strokeColor=#36393d;" vertex="1" parent="1">
          <mxGeometry x="-118.5" y="990" width="159.5" height="40" as="geometry" />
        </mxCell>
        <mxCell id="_41Iq6OzP9S5sfrPNSl_-53" value="pipyserver" style="rounded=1;whiteSpace=wrap;html=1;fillColor=#fff2cc;gradientColor=#ffd966;strokeColor=#d6b656;" vertex="1" parent="1">
          <mxGeometry x="-119" y="920" width="160" height="30" as="geometry" />
        </mxCell>
        <mxCell id="_41Iq6OzP9S5sfrPNSl_-54" value="portainer" style="rounded=1;whiteSpace=wrap;html=1;fillColor=#fff2cc;gradientColor=#ffd966;strokeColor=#d6b656;" vertex="1" parent="1">
          <mxGeometry x="116.5" y="880" width="160" height="30" as="geometry" />
        </mxCell>
        <mxCell id="_41Iq6OzP9S5sfrPNSl_-56" value="portainer" style="rounded=1;whiteSpace=wrap;html=1;fillColor=#fff2cc;gradientColor=#ffd966;strokeColor=#d6b656;" vertex="1" parent="1">
          <mxGeometry x="371" y="880" width="160" height="30" as="geometry" />
        </mxCell>
        <mxCell id="_41Iq6OzP9S5sfrPNSl_-58" value="监控/辅助系统" style="text;html=1;strokeColor=none;fillColor=none;align=center;verticalAlign=middle;whiteSpace=wrap;rounded=0;fontStyle=3;fontColor=#666666;" vertex="1" parent="1">
          <mxGeometry x="-319" y="877" width="210" height="36" as="geometry" />
        </mxCell>
        <mxCell id="_41Iq6OzP9S5sfrPNSl_-59" value="OS: Anlois8.8GA" style="text;html=1;strokeColor=none;fillColor=none;align=center;verticalAlign=middle;whiteSpace=wrap;rounded=0;fontStyle=1" vertex="1" parent="1">
          <mxGeometry x="-49" y="250" width="80" height="30" as="geometry" />
        </mxCell>
        <mxCell id="_41Iq6OzP9S5sfrPNSl_-61" value="OS: Anlois8.8GA" style="text;html=1;strokeColor=none;fillColor=none;align=center;verticalAlign=middle;whiteSpace=wrap;rounded=0;fontStyle=1" vertex="1" parent="1">
          <mxGeometry x="217" y="250" width="80" height="30" as="geometry" />
        </mxCell>
        <mxCell id="_41Iq6OzP9S5sfrPNSl_-62" value="chrony（时间同步[node]）" style="rounded=1;whiteSpace=wrap;html=1;fillColor=#cdeb8b;strokeColor=#36393d;" vertex="1" parent="1">
          <mxGeometry x="137.5" y="990" width="159.5" height="40" as="geometry" />
        </mxCell>
        <mxCell id="_41Iq6OzP9S5sfrPNSl_-65" value="OS: Anlois8.8GA" style="text;html=1;strokeColor=none;fillColor=none;align=center;verticalAlign=middle;whiteSpace=wrap;rounded=0;fontStyle=1" vertex="1" parent="1">
          <mxGeometry x="471.5" y="250" width="80" height="30" as="geometry" />
        </mxCell>
        <mxCell id="_41Iq6OzP9S5sfrPNSl_-75" style="edgeStyle=orthogonalEdgeStyle;rounded=0;orthogonalLoop=1;jettySize=auto;html=1;dashed=1;dashPattern=1 4;" edge="1" parent="1" source="_41Iq6OzP9S5sfrPNSl_-66" target="_41Iq6OzP9S5sfrPNSl_-52">
          <mxGeometry relative="1" as="geometry" />
        </mxCell>
        <mxCell id="_41Iq6OzP9S5sfrPNSl_-66" value="chrony（时间同步[node]）" style="rounded=1;whiteSpace=wrap;html=1;fillColor=#cdeb8b;strokeColor=#36393d;" vertex="1" parent="1">
          <mxGeometry x="381.5" y="990" width="159.5" height="40" as="geometry" />
        </mxCell>
        <mxCell id="_41Iq6OzP9S5sfrPNSl_-71" value="CPU:13900K Mem:128GB SSD: 1T GPU:4070Ti(12GB)" style="text;html=1;strokeColor=none;fillColor=none;align=center;verticalAlign=middle;whiteSpace=wrap;rounded=0;fontStyle=3;fontColor=#6600CC;" vertex="1" parent="1">
          <mxGeometry x="-169" y="200" width="750" height="40" as="geometry" />
        </mxCell>
        <mxCell id="_41Iq6OzP9S5sfrPNSl_-72" value="硬件配置" style="text;html=1;strokeColor=none;fillColor=none;align=center;verticalAlign=middle;whiteSpace=wrap;rounded=0;fontStyle=3;fontColor=#666666;" vertex="1" parent="1">
          <mxGeometry x="-309" y="206" width="140" height="28" as="geometry" />
        </mxCell>
        <mxCell id="_41Iq6OzP9S5sfrPNSl_-77" value="周界入侵检测程序部署结构图" style="text;html=1;strokeColor=none;fillColor=none;align=center;verticalAlign=middle;whiteSpace=wrap;rounded=0;fontSize=22;fontStyle=1" vertex="1" parent="1">
          <mxGeometry x="58.75" y="50" width="294.5" height="30" as="geometry" />
        </mxCell>
        <mxCell id="_41Iq6OzP9S5sfrPNSl_-78" value="" style="image;aspect=fixed;perimeter=ellipsePerimeter;html=1;align=center;shadow=0;dashed=0;spacingTop=3;image=img/lib/active_directory/windows_server.svg;" vertex="1" parent="1">
          <mxGeometry x="676" y="289" width="41" height="50" as="geometry" />
        </mxCell>
        <mxCell id="_41Iq6OzP9S5sfrPNSl_-80" value="演示电脑：192.168.1.14" style="text;html=1;strokeColor=none;fillColor=none;align=center;verticalAlign=middle;whiteSpace=wrap;rounded=0;fontStyle=1" vertex="1" parent="1">
          <mxGeometry x="626" y="350" width="149.25" height="20" as="geometry" />
        </mxCell>
        <mxCell id="_41Iq6OzP9S5sfrPNSl_-81" value="" style="html=1;verticalLabelPosition=bottom;align=center;labelBackgroundColor=#ffffff;verticalAlign=top;strokeWidth=2;strokeColor=#0080F0;shadow=0;dashed=0;shape=mxgraph.ios7.icons.bell;" vertex="1" parent="1">
          <mxGeometry x="677" y="582" width="40" height="36" as="geometry" />
        </mxCell>
        <mxCell id="_41Iq6OzP9S5sfrPNSl_-82" value="报警设备：192.168.1.15" style="text;html=1;strokeColor=none;fillColor=none;align=center;verticalAlign=middle;whiteSpace=wrap;rounded=0;fontStyle=1" vertex="1" parent="1">
          <mxGeometry x="623.38" y="630" width="149.25" height="20" as="geometry" />
        </mxCell>
        <mxCell id="_41Iq6OzP9S5sfrPNSl_-92" value="" style="line;strokeWidth=2;direction=south;html=1;perimeter=backbonePerimeter;points=[];outlineConnect=0;dashed=1;dashPattern=8 8;" vertex="1" parent="1">
          <mxGeometry x="600" y="120" width="10" height="930" as="geometry" />
        </mxCell>
        <mxCell id="_41Iq6OzP9S5sfrPNSl_-93" value="服务器端" style="text;strokeColor=none;fillColor=none;html=1;fontSize=15;fontStyle=1;verticalAlign=middle;align=center;" vertex="1" parent="1">
          <mxGeometry x="500" y="115" width="100" height="40" as="geometry" />
        </mxCell>
        <mxCell id="_41Iq6OzP9S5sfrPNSl_-94" value="客户端" style="text;strokeColor=none;fillColor=none;html=1;fontSize=15;fontStyle=1;verticalAlign=middle;align=center;" vertex="1" parent="1">
          <mxGeometry x="610" y="120" width="100" height="30" as="geometry" />
        </mxCell>
      </root>
    </mxGraphModel>
  </diagram>
</mxfile>
